# ProBuilder 5.0.6
# https://unity3d.com/unity/features/worldbuilding/probuilder
# 26.12.2022 20:51:04

mtllib ./Arch_60.mtl
o Arch_60

g Arch
v 2.5 -2.5 0.46
v -1.686046 -2.5 0.46
v 2.5 -2.5 -0.46
v -1.686046 -2.5 -0.46
v 2.411673 -1.497442 -0.46
v 2.411673 -1.497442 0.46
v -1.710778 -2.219284 -0.46
v -1.710778 -2.219284 0.46
v 2.149375 -0.525346 -0.46
v 2.149375 -0.525346 0.46
v -1.784221 -1.947097 -0.46
v -1.784221 -1.947097 0.46
v 1.721078 0.3867512 -0.46
v 1.721078 0.3867512 0.46
v -1.904145 -1.69171 -0.46
v -1.904145 -1.69171 0.46
v 1.139793 1.211136 -0.46
v 1.139793 1.211136 0.46
v -2.066904 -1.460882 -0.46
v -2.066904 -1.460882 0.46
v 0.4231841 1.922759 -0.46
v 0.4231841 1.922759 0.46
v -2.267555 -1.261627 -0.46
v -2.267555 -1.261627 0.46
v -0.4069769 2.5 -0.46
v -0.4069769 2.5 0.46
v -2.5 -1.1 -0.46
v -2.5 -1.1 0.46

vt -2.5 0.46
vt 1.686046 0.46
vt -2.5 -0.46
vt 1.686046 -0.46
vt -0.46 -2.709758
vt -0.46 -1.703316
vt 0.46 -2.709758
vt 0.46 -1.703316
vt 0.46 -2.060579
vt 0.46 -2.342383
vt -0.46 -2.060579
vt -0.46 -2.342383
vt -0.46 -2.074002
vt -0.46 -1.06714
vt 0.46 -2.074002
vt 0.46 -1.06714
vt 0.46 -1.41506
vt 0.46 -1.696981
vt -0.46 -1.41506
vt -0.46 -1.696981
vt -0.46 -1.389111
vt -0.46 -0.3814605
vt 0.46 -1.389111
vt 0.46 -0.3814605
vt 0.46 -0.7219388
vt 0.46 -1.004081
vt -0.46 -0.7219388
vt -0.46 -1.004081
vt -0.46 -0.6757166
vt -0.46 0.3329959
vt 0.46 -0.6757166
vt 0.46 0.3329959
vt 0.46 -0.002844919
vt 0.46 -0.2852843
vt -0.46 -0.002844919
vt -0.46 -0.2852843
vt -0.04464378 -0.46
vt -1.054563 -0.46
vt -0.04464378 0.46
vt -1.054563 0.46
vt 0.7200047 -0.46
vt 0.4372272 -0.46
vt 0.7200047 0.46
vt 0.4372272 0.46
vt -0.7502375 -0.46
vt -1.761363 -0.46
vt -0.7502375 0.46
vt -1.761363 0.46
vt 1.42459 -0.46
vt 1.141474 -0.46
vt 1.42459 0.46
vt 1.141474 0.46
vt -0.46 -2.207509
vt -0.46 1.956713
vt 0.46 -2.207509
vt 0.46 1.956713
vt -2.5 -2.5
vt -2.411673 -1.497442
vt 1.686046 -2.5
vt 1.710778 -2.219284
vt 2.411673 -1.497442
vt 2.5 -2.5
vt -1.710778 -2.219284
vt -1.686046 -2.5
vt -2.149375 -0.525346
vt 1.784221 -1.947097
vt 2.149375 -0.525346
vt -1.784221 -1.947097
vt -1.721078 0.3867512
vt 1.904145 -1.69171
vt 1.721078 0.3867512
vt -1.904145 -1.69171
vt -1.139793 1.211136
vt 2.066904 -1.460882
vt 1.139793 1.211136
vt -2.066904 -1.460882
vt -0.4231841 1.922759
vt 2.267555 -1.261627
vt 0.4231841 1.922759
vt -2.267555 -1.261627
vt 0.4069769 2.5
vt 2.5 -1.1
vt -0.4069769 2.5
vt -2.5 -1.1

vn 0 -1 0
vn 0.9961415 0.08776161 0
vn 0.9846022 0.1748098 0
vn -0.9846022 -0.1748097 0
vn -0.9961415 -0.08776199 0
vn 0.9389325 0.3441013 0
vn -0.9389326 -0.3441011 0
vn 0.8645304 0.5025804 0
vn -0.8645304 -0.5025805 0
vn 0.7638627 0.6453788 0
vn -0.7638627 -0.6453788 0
vn 0.640192 0.768215 0
vn -0.7046342 -0.7095708 0
vn 0.5708894 0.821027 0
vn -0.5708893 -0.8210271 0
vn -0.8645071 0.5026204 0
vn 0 0 1
vn 0 0 -1

usemtl ProBuilderDefault
f 1/1/1 2/2/1 3/3/1
f 2/2/1 4/4/1 3/3/1
f 3/5/2 5/6/3 1/7/2
f 5/6/3 6/8/3 1/7/2
f 7/9/4 4/10/5 8/11/4
f 4/10/5 2/12/5 8/11/4
f 5/13/3 9/14/6 6/15/3
f 9/14/6 10/16/6 6/15/3
f 11/17/7 7/18/4 12/19/7
f 7/18/4 8/20/4 12/19/7
f 9/21/6 13/22/8 10/23/6
f 13/22/8 14/24/8 10/23/6
f 15/25/9 11/26/7 16/27/9
f 11/26/7 12/28/7 16/27/9
f 13/29/8 17/30/10 14/31/8
f 17/30/10 18/32/10 14/31/8
f 19/33/11 15/34/9 20/35/11
f 15/34/9 16/36/9 20/35/11
f 17/37/10 21/38/12 18/39/10
f 21/38/12 22/40/12 18/39/10
f 23/41/13 19/42/11 24/43/13
f 19/42/11 20/44/11 24/43/13
f 21/45/12 25/46/14 22/47/12
f 25/46/14 26/48/14 22/47/12
f 27/49/15 23/50/15 28/51/15
f 23/50/15 24/52/15 28/51/15
f 28/53/16 26/54/16 27/55/16
f 26/54/16 25/56/16 27/55/16
f 1/57/17 6/58/17 2/59/17
f 6/58/17 8/60/17 2/59/17
f 5/61/18 3/62/18 7/63/18
f 3/62/18 4/64/18 7/63/18
f 6/58/17 10/65/17 8/60/17
f 10/65/17 12/66/17 8/60/17
f 9/67/18 5/61/18 11/68/18
f 5/61/18 7/63/18 11/68/18
f 10/65/17 14/69/17 12/66/17
f 14/69/17 16/70/17 12/66/17
f 13/71/18 9/67/18 15/72/18
f 9/67/18 11/68/18 15/72/18
f 14/69/17 18/73/17 16/70/17
f 18/73/17 20/74/17 16/70/17
f 17/75/18 13/71/18 19/76/18
f 13/71/18 15/72/18 19/76/18
f 18/73/17 22/77/17 20/74/17
f 22/77/17 24/78/17 20/74/17
f 21/79/18 17/75/18 23/80/18
f 17/75/18 19/76/18 23/80/18
f 22/77/17 26/81/17 24/78/17
f 26/81/17 28/82/17 24/78/17
f 25/83/18 21/79/18 27/84/18
f 21/79/18 23/80/18 27/84/18

